# xmcd
#
# Track frame offsets:
#	150
#	22964
#	38387
#	54682
#	74106
#	90459
#	106362
#	118774
#	133758
#	157282
#	176709
#
# Disc length: 2560 seconds
#
# Revision: 0
# Processed by: cddbd v1.4PL0 Copyright (c) Steve Scherf et al.
# Submitted via: dBpowerAMP V4.0
#
DISCID=9a09fe0b
DTITLE=Dead End Angels - November
DYEAR=2003
DGENRE=Country
TTITLE0=almost familiar
TTITLE1=melanie jane
TTITLE2=wait this time
TTITLE3=rhonda's prayer
TTITLE4=if you want it that much
TTITLE5=girl in oklahoma
TTITLE6=milk and honey
TTITLE7=all i want to do
TTITLE8=red letter bible
TTITLE9=wrecked and beautiful
TTITLE10=sleep baby blue
EXTD=www.deadendangels.com
EXTT0=
EXTT1=
EXTT2=
EXTT3=
EXTT4=
EXTT5=
EXTT6=
EXTT7=
EXTT8=
EXTT9=
EXTT10=
PLAYORDER=
